<svg width="78" height="84" viewBox="0 0 78 84" fill="none" xmlns="http://www.w3.org/2000/svg">
<g filter="url(#filter0_dddddi_109_10)">
<rect x="7" y="2" width="64" height="64" rx="32" fill="#2D2A37"/>
<rect x="7" y="2" width="64" height="64" rx="32" fill="url(#paint0_linear_109_10)"/>
<path fill-rule="evenodd" clip-rule="evenodd" d="M47.4937 25.5063C47.8354 25.848 47.8354 26.402 47.4937 26.7437L31.7437 42.4937C31.402 42.8354 30.848 42.8354 30.5063 42.4937C30.1646 42.152 30.1646 41.598 30.5063 41.2563L46.2563 25.5063C46.598 25.1646 47.152 25.1646 47.4937 25.5063Z" fill="#EBEBEB"/>
<path fill-rule="evenodd" clip-rule="evenodd" d="M33.3125 26.125C32.1044 26.125 31.125 27.1044 31.125 28.3125C31.125 29.5206 32.1044 30.5 33.3125 30.5C34.5206 30.5 35.5 29.5206 35.5 28.3125C35.5 27.1044 34.5206 26.125 33.3125 26.125ZM29.375 28.3125C29.375 26.1379 31.1379 24.375 33.3125 24.375C35.4871 24.375 37.25 26.1379 37.25 28.3125C37.25 30.4871 35.4871 32.25 33.3125 32.25C31.1379 32.25 29.375 30.4871 29.375 28.3125Z" fill="#EBEBEB"/>
<path fill-rule="evenodd" clip-rule="evenodd" d="M44.6875 37.5C43.4794 37.5 42.5 38.4794 42.5 39.6875C42.5 40.8956 43.4794 41.875 44.6875 41.875C45.8956 41.875 46.875 40.8956 46.875 39.6875C46.875 38.4794 45.8956 37.5 44.6875 37.5ZM40.75 39.6875C40.75 37.5129 42.5129 35.75 44.6875 35.75C46.8621 35.75 48.625 37.5129 48.625 39.6875C48.625 41.8621 46.8621 43.625 44.6875 43.625C42.5129 43.625 40.75 41.8621 40.75 39.6875Z" fill="#EBEBEB"/>
</g>
<defs>
<filter id="filter0_dddddi_109_10" x="0" y="0" width="78" height="84" filterUnits="userSpaceOnUse" color-interpolation-filters="sRGB">
<feFlood flood-opacity="0" result="BackgroundImageFix"/>
<feColorMatrix in="SourceAlpha" type="matrix" values="0 0 0 0 0 0 0 0 0 0 0 0 0 0 0 0 0 0 127 0" result="hardAlpha"/>
<feOffset/>
<feGaussianBlur stdDeviation="1"/>
<feColorMatrix type="matrix" values="0 0 0 0 0 0 0 0 0 0 0 0 0 0 0 0 0 0 0.29 0"/>
<feBlend mode="normal" in2="BackgroundImageFix" result="effect1_dropShadow_109_10"/>
<feColorMatrix in="SourceAlpha" type="matrix" values="0 0 0 0 0 0 0 0 0 0 0 0 0 0 0 0 0 0 127 0" result="hardAlpha"/>
<feOffset dy="2"/>
<feGaussianBlur stdDeviation="2"/>
<feColorMatrix type="matrix" values="0 0 0 0 0 0 0 0 0 0 0 0 0 0 0 0 0 0 0.26 0"/>
<feBlend mode="normal" in2="effect1_dropShadow_109_10" result="effect2_dropShadow_109_10"/>
<feColorMatrix in="SourceAlpha" type="matrix" values="0 0 0 0 0 0 0 0 0 0 0 0 0 0 0 0 0 0 127 0" result="hardAlpha"/>
<feOffset dy="4"/>
<feGaussianBlur stdDeviation="3"/>
<feColorMatrix type="matrix" values="0 0 0 0 0 0 0 0 0 0 0 0 0 0 0 0 0 0 0.1 0"/>
<feBlend mode="normal" in2="effect2_dropShadow_109_10" result="effect3_dropShadow_109_10"/>
<feColorMatrix in="SourceAlpha" type="matrix" values="0 0 0 0 0 0 0 0 0 0 0 0 0 0 0 0 0 0 127 0" result="hardAlpha"/>
<feOffset dy="7"/>
<feGaussianBlur stdDeviation="3.5"/>
<feColorMatrix type="matrix" values="0 0 0 0 0 0 0 0 0 0 0 0 0 0 0 0 0 0 0.04 0"/>
<feBlend mode="normal" in2="effect3_dropShadow_109_10" result="effect4_dropShadow_109_10"/>
<feColorMatrix in="SourceAlpha" type="matrix" values="0 0 0 0 0 0 0 0 0 0 0 0 0 0 0 0 0 0 127 0" result="hardAlpha"/>
<feOffset dy="11"/>
<feGaussianBlur stdDeviation="3.5"/>
<feColorMatrix type="matrix" values="0 0 0 0 0 0 0 0 0 0 0 0 0 0 0 0 0 0 0.01 0"/>
<feBlend mode="normal" in2="effect4_dropShadow_109_10" result="effect5_dropShadow_109_10"/>
<feBlend mode="normal" in="SourceGraphic" in2="effect5_dropShadow_109_10" result="shape"/>
<feColorMatrix in="SourceAlpha" type="matrix" values="0 0 0 0 0 0 0 0 0 0 0 0 0 0 0 0 0 0 127 0" result="hardAlpha"/>
<feOffset dy="2"/>
<feGaussianBlur stdDeviation="1.5"/>
<feComposite in2="hardAlpha" operator="arithmetic" k2="-1" k3="1"/>
<feColorMatrix type="matrix" values="0 0 0 0 1 0 0 0 0 1 0 0 0 0 1 0 0 0 0.06 0"/>
<feBlend mode="normal" in2="shape" result="effect6_innerShadow_109_10"/>
</filter>
<linearGradient id="paint0_linear_109_10" x1="39" y1="2" x2="39" y2="66" gradientUnits="userSpaceOnUse">
<stop stop-opacity="0.05"/>
<stop offset="1" stop-color="white" stop-opacity="0.05"/>
</linearGradient>
</defs>
</svg>
