<svg width="14" height="19" viewBox="0 0 14 19" fill="none" xmlns="http://www.w3.org/2000/svg">
<path d="M7.14381 18.24C5.67181 18.24 4.44781 17.968 3.47181 17.424C2.51181 16.88 1.78381 16.12 1.28781 15.144C0.791813 14.168 0.519813 13.032 0.471813 11.736C0.455813 11.08 0.447813 10.376 0.447813 9.624C0.447813 8.872 0.455813 8.152 0.471813 7.464C0.519813 6.168 0.791813 5.032 1.28781 4.056C1.78381 3.08 2.51181 2.32 3.47181 1.776C4.44781 1.232 5.67181 0.959999 7.14381 0.959999C8.24781 0.959999 9.21581 1.112 10.0478 1.416C10.8798 1.72 11.5678 2.128 12.1118 2.64C12.6718 3.152 13.0958 3.728 13.3838 4.368C13.6718 4.992 13.8318 5.64 13.8638 6.312C13.8798 6.456 13.8318 6.576 13.7198 6.672C13.6238 6.768 13.5038 6.816 13.3598 6.816H12.0398C11.8958 6.816 11.7678 6.776 11.6558 6.696C11.5598 6.616 11.4878 6.472 11.4398 6.264C11.1678 5.016 10.6558 4.16 9.90381 3.696C9.16781 3.232 8.23981 3 7.11981 3C5.83981 3 4.82381 3.368 4.07181 4.104C3.31981 4.824 2.91181 5.984 2.84781 7.584C2.79981 8.896 2.79981 10.24 2.84781 11.616C2.91181 13.216 3.31981 14.384 4.07181 15.12C4.82381 15.84 5.83981 16.2 7.11981 16.2C8.23981 16.2 9.16781 15.968 9.90381 15.504C10.6558 15.04 11.1678 14.184 11.4398 12.936C11.4878 12.728 11.5598 12.584 11.6558 12.504C11.7678 12.424 11.8958 12.384 12.0398 12.384H13.3598C13.5038 12.384 13.6238 12.432 13.7198 12.528C13.8318 12.624 13.8798 12.744 13.8638 12.888C13.8318 13.56 13.6718 14.216 13.3838 14.856C13.0958 15.48 12.6718 16.048 12.1118 16.56C11.5678 17.072 10.8798 17.48 10.0478 17.784C9.21581 18.088 8.24781 18.24 7.14381 18.24Z" fill="#EBEBEB"/>
</svg>
