<svg width="28" height="19" viewBox="0 0 28 19" fill="none" xmlns="http://www.w3.org/2000/svg">
<path d="M7.10647 18.24C5.63447 18.24 4.41047 17.968 3.43447 17.424C2.47447 16.88 1.74647 16.12 1.25047 15.144C0.754469 14.168 0.482469 13.032 0.434469 11.736C0.418469 11.08 0.410469 10.376 0.410469 9.624C0.410469 8.872 0.418469 8.152 0.434469 7.464C0.482469 6.168 0.754469 5.032 1.25047 4.056C1.74647 3.08 2.47447 2.32 3.43447 1.776C4.41047 1.232 5.63447 0.959999 7.10647 0.959999C8.21047 0.959999 9.17847 1.112 10.0105 1.416C10.8425 1.72 11.5305 2.128 12.0745 2.64C12.6345 3.152 13.0585 3.728 13.3465 4.368C13.6345 4.992 13.7945 5.64 13.8265 6.312C13.8425 6.456 13.7945 6.576 13.6825 6.672C13.5865 6.768 13.4665 6.816 13.3225 6.816H12.0025C11.8585 6.816 11.7305 6.776 11.6185 6.696C11.5225 6.616 11.4505 6.472 11.4025 6.264C11.1305 5.016 10.6185 4.16 9.86647 3.696C9.13047 3.232 8.20247 3 7.08247 3C5.80247 3 4.78647 3.368 4.03447 4.104C3.28247 4.824 2.87447 5.984 2.81047 7.584C2.76247 8.896 2.76247 10.24 2.81047 11.616C2.87447 13.216 3.28247 14.384 4.03447 15.12C4.78647 15.84 5.80247 16.2 7.08247 16.2C8.20247 16.2 9.13047 15.968 9.86647 15.504C10.6185 15.04 11.1305 14.184 11.4025 12.936C11.4505 12.728 11.5225 12.584 11.6185 12.504C11.7305 12.424 11.8585 12.384 12.0025 12.384H13.3225C13.4665 12.384 13.5865 12.432 13.6825 12.528C13.7945 12.624 13.8425 12.744 13.8265 12.888C13.7945 13.56 13.6345 14.216 13.3465 14.856C13.0585 15.48 12.6345 16.048 12.0745 16.56C11.5305 17.072 10.8425 17.48 10.0105 17.784C9.17847 18.088 8.21047 18.24 7.10647 18.24ZM17.1148 18C16.9388 18 16.8028 17.952 16.7068 17.856C16.6108 17.744 16.5628 17.608 16.5628 17.448V1.776C16.5628 1.6 16.6108 1.464 16.7068 1.368C16.8028 1.256 16.9388 1.2 17.1148 1.2H27.0268C27.2028 1.2 27.3388 1.256 27.4348 1.368C27.5308 1.464 27.5788 1.6 27.5788 1.776V2.688C27.5788 2.864 27.5308 3 27.4348 3.096C27.3388 3.192 27.2028 3.24 27.0268 3.24H18.8668V8.496H26.4988C26.6748 8.496 26.8108 8.552 26.9068 8.664C27.0028 8.76 27.0508 8.896 27.0508 9.072V9.96C27.0508 10.12 27.0028 10.256 26.9068 10.368C26.8108 10.464 26.6748 10.512 26.4988 10.512H18.8668V15.96H27.2188C27.3948 15.96 27.5308 16.008 27.6268 16.104C27.7228 16.2 27.7708 16.336 27.7708 16.512V17.448C27.7708 17.608 27.7228 17.744 27.6268 17.856C27.5308 17.952 27.3948 18 27.2188 18H17.1148Z" fill="#975DFA"/>
</svg>
